<svg xmlns="http://www.w3.org/2000/svg" xmlns:xlink="http://www.w3.org/1999/xlink" width="70.931" height="86.4" viewBox="0 0 70.931 86.4">
  <defs>
    <clipPath id="clip-path">
      <rect id="Rectangle_35" data-name="Rectangle 35" width="70.931" height="86.4" fill="#d3b078" stroke="#d3b078" stroke-width="0.6"/>
    </clipPath>
  </defs>
  <g id="Icon" clip-path="url(#clip-path)">
    <path id="Path_11" data-name="Path 11" d="M69.893.842c-3.615-3.379-6.655,4.483-9.973,4.781-.633.057-1.054-.37-1.467-.36-.791.018-4.087,3.892-4.911,4.639l1.467,2.03c-2.86,3.84-7.538,7.047-10.527,10.759-1.144,1.421-3.049,4.342-.627,5.464,2.324,1.076,6.533-3.861,8.12-5.207,3.24,6.742,3.064,14.511,1.016,21.591-.364.061-.345-.442-.429-.706-1.027-3.247-1.564-6.291-3.429-9.276-.315-.5-1.685-2.729-2.371-1.711-.468,1.19.8,2.135,1.367,3.222a30.038,30.038,0,0,1,1.825,4.271c.475,1.417,1.594,7.368,2.01,7.9,1.336,1.717,2.291-3.2,2.681-3.188,1.843,2.7,1.8,7.573-1.02,9.646-.575.106-.35-.251-.377-.629a13.9,13.9,0,0,0-.121-2.932c-.336-.5-1.06-.189-1.276.263-.428.9-.018,4.786-.16,6.192-.515,5.143-4.643,10.724-8.187,14.294-6.853,6.905-10.344,8.7-18.081,1.62a29.606,29.606,0,0,1-5.588-6.431V61.616c0-1.143-2.835-2.118-3.775-2.193-.638-1.957.993-1.2,1.229-2.386a37.776,37.776,0,0,0,0-5.576c-.167-.886-1.136-1.043-1.635-1.668-1.258-1.577-.675-4.8-.932-7.2l0,0a18.133,18.133,0,0,1,6.68-9.444c2.011-1.4,7.825-1.757,10.363-1.831,2.637-.079,5.218.291,7.848.228l.4-.369-.085-.883-1.161-.36c1.555-1.333,2.783-3.67,2.006-5.69l-1.007.085c-.634,3.452-1.8,5.144-5.45,5.473-4.088.367-8.841-.243-12.771,1.455-3.076,1.329-6.453,6.02-7.322,9.508a2.118,2.118,0,0,0-1.022-.913c-1.2-8.443,0-18.048,7.8-22.6,6.056-3.533,16.651-3.489,23.093-1.033.79.3,4.058,2.561,3.83.507-.1-.917-2.725-1.423-2.823-1.824.765-4.514-.4-9.558-4.932-11.523A19.974,19.974,0,0,0,27.524,3.2c-5.286,2.069-5.775,6.751-5.563,11.838C12.53,18.855,10.529,30.439,11.438,39.62l.031.028c-4.625.522-1.085,7.927-3.56,10.477-.513.529-1.244.325-1.481,1.384-.181.81-.182,5.678.257,6.112.22.218.769.171.9.363a3.862,3.862,0,0,1,.187,1.233c-.259.471-2.24.615-2.923,1.134a5.228,5.228,0,0,0-1.021,1.519V83.082c-1.015.211-3.987-.647-3.827.889.024.221.24.636.4.636H21.584c-.464.557-.793,1.1-.235,1.619,1.014.812,2.25-1.421,2.654-2.211,1.17-2.293,1.6-5.2,2.066-7.717,4.671,4.432,10.408,4.317,15.11,0a28.342,28.342,0,0,0,1.945,7.46c.347.725,1.66,3.271,2.641,2.474.935-.759-.588-1.925-1.038-2.808-1.261-2.48-1.695-5.722-2.113-8.464C47.757,70,52.987,64.189,53.282,56.643c4.327-1.644,5.289-7.811,3.4-11.594-.42-.84-1.646-1.578-1.671-1.7-.1-.488.953-4.9,1.031-6.052.351-5.231-.363-10.9-2.977-15.5l5.9-5.962c.688.521,1.239,1.761,2.231,1.484a46.023,46.023,0,0,0,3.87-3.769c1.035-1.365.281-1.344.358-2.669C65.6,7.91,73.755,4.452,69.893.842M23.9,9.483c1.49-5.863,8.889-6.414,13.856-5.214,2.483.6,5.834,3.074,5.834,5.852v4.191a33.757,33.757,0,0,0-19.7-.043c-.84-.143-.192-4,.006-4.786M10.955,41.557a1.254,1.254,0,0,1,1.918.1c.747.9.218,4.548.362,5.987a15.234,15.234,0,0,0,.76,2.67H9.675c1.583-1.762-.023-7.621,1.28-8.754m-2.8,10.533h7.621v4.065H8.151Zm9.923,30.882-12.3.075c-.8-.262-.269-2.773-.416-3.521H18.313ZM5.357,77.747V66.569l2.516-.276c.259-1.737-1.21-1.568-2.517-1.5-.333-3.845.442-2.752,2.726-3.754a2.778,2.778,0,0,0,1.338-3.107H14.5c-.46,3.509,1,2.6,2.98,3.5,1.34.607.7,2.151.83,3.361H10.818c-.738,0-.738,1.778,0,1.778h7.494v7.722H10.875c-.484,0-.484,1.463,0,1.463h7.437v1.993Zm17.311,5.314c-.893-.091-2.107.115-2.831.021V69.638L24.5,74.955c.337,1.132-1.034,6.248-1.828,8.106m24.74-57.95a4.736,4.736,0,0,1-3.05,1.394c-.374-.364,1.078-2.4,1.394-2.8,2.837-3.553,7.309-6.754,10.293-10.3.614-.316,1.288.949,1.772,1.285-3.573,3.065-6.811,7.505-10.408,10.418m13.554-9.8-5.423-5.19,2.952-2.9,5.423,5.19Zm3.973-7.222c-.463.6-.6,1.363-1.143,1.9L60.87,6.948a6.422,6.422,0,0,0,2.159-1.02c1.191-.879,3.822-4.654,5.214-4.218,3.284,1.028-2.477,5.3-3.308,6.378" transform="translate(0 0)" fill="#d3b078" stroke="#d3b078" stroke-width="0.6"/>
    <path id="Path_12" data-name="Path 12" d="M45.188,34.921c-1.109,2.047-3.21,3.778-2.1,6.4,1.195,2.831,6.017,2.627,6.872-.357.718-2.506-1.2-4.094-2.255-6.04-.35-.644-.394-2.287-1.463-2.019-.684.17-.722,1.413-1.05,2.019m1.257,1.262c.958,1.073,2.885,3.7,1.579,5.006-.812.816-3.052.711-3.373-.414-.493-1.726.714-3.357,1.793-4.591" transform="translate(-3.992 -3.068)" fill="#d3b078" stroke="#d3b078" stroke-width="0.6"/>
    <path id="Path_13" data-name="Path 13" d="M54.372,78.287c-.976.312-.227,2.162.877,1.389a.83.83,0,0,0-.877-1.389" transform="translate(-5.033 -7.302)" fill="#d3b078" stroke="#d3b078" stroke-width="0.6"/>
    <path id="Path_14" data-name="Path 14" d="M52.13,80.809c-.976.312-.227,2.162.877,1.389a.83.83,0,0,0-.877-1.389" transform="translate(-4.824 -7.537)" fill="#d3b078" stroke="#d3b078" stroke-width="0.6"/>
    <path id="Path_15" data-name="Path 15" d="M59.109,72.955c-.939-.567-2.272.728-.995,1.382,1.085.554,1.392-1.142.995-1.382" transform="translate(-5.375 -6.796)" fill="#d3b078" stroke="#d3b078" stroke-width="0.6"/>
    <path id="Path_16" data-name="Path 16" d="M56.333,75.765c-.976.312-.227,2.162.877,1.389a.83.83,0,0,0-.877-1.389" transform="translate(-5.216 -7.066)" fill="#d3b078" stroke="#d3b078" stroke-width="0.6"/>
    <path id="Path_17" data-name="Path 17" d="M60.8,66.779a.835.835,0,0,0,.726,1.5c.918-.286.123-1.742-.726-1.5" transform="translate(-5.636 -6.23)" fill="#d3b078" stroke="#d3b078" stroke-width="0.6"/>
    <path id="Path_18" data-name="Path 18" d="M59.678,69.861a.835.835,0,0,0,.726,1.5c.918-.286.123-1.742-.726-1.5" transform="translate(-5.531 -6.518)" fill="#d3b078" stroke="#d3b078" stroke-width="0.6"/>
    <path id="Path_19" data-name="Path 19" d="M14.083,80.174h4.633c.485,0,.484-1.463,0-1.463H13.839l-.374.61a1.522,1.522,0,0,0,.618.853" transform="translate(-1.257 -7.347)" fill="#d3b078" stroke="#d3b078" stroke-width="0.6"/>
  </g>
</svg>
