<svg xmlns="http://www.w3.org/2000/svg" xmlns:xlink="http://www.w3.org/1999/xlink" width="67.44" height="86.4" viewBox="0 0 67.44 86.4">
  <defs>
    <clipPath id="clip-path">
      <rect id="Rectangle_32" data-name="Rectangle 32" width="67.44" height="86.4" fill="#d3b078" stroke="#c59c5d" stroke-width="0.6"/>
    </clipPath>
  </defs>
  <g id="Icon" clip-path="url(#clip-path)">
    <path id="Path_4" data-name="Path 4" d="M64.838,42.1c2.692-10.577,1.155-24.254-10-29.135-.265-.986.159-1.919.136-3.01a11.544,11.544,0,0,0-2.178-6.467C50.937,1.2,48.116.558,45.36,0h-4.8L36.632.991c-5.3,2.041-5.991,7.076-5.711,12.17-11.158,4.6-12.431,18.33-10.041,28.716-1.28,1.548-2.188,2.7-2.4,4.805-.315,3.167.05,6.287,2.755,8.28.4.293,1.08.338,1.329.591.316.321.18,1.017.454,1.225.351.269,1.219.04,1.219-.258V50.28c0-.231-.552-.4-.834-.373-1.217.132-.6,2.976-.848,3.853-2.854-1.291-2.964-6.113-2.031-8.633.087-.236.66-1.586,1.072-1.207,2.427,8.189,3.068.222,3.962-2.88.756-2.623,2.5-7.821,4.8-9.362a10.719,10.719,0,0,1,3.229-1.091c4.473-.884,17.976-1.224,21.782,1.043,2.557,1.523,4.457,7.78,5.232,10.608.237.864.818,4.642,1.136,4.982,1.2,1.286,2.317-2.528,2.585-3.3,2.294,2.305,2.139,8.436-1.2,9.84v-3.6l-1.03-.207a.967.967,0,0,0-.6.616c-.387,1.3.089,4.575-.04,6.2-.526,6.647-8.848,16.6-14.483,19.838C39.75,80.747,33.939,72.255,29.524,67.8c.623-1.014,1.232-.3,2.038-.338s2.866-1.406,2.245-2.389c-.607-.96-2.072.65-2.49.689-.479.045-1.029-.348-1.664-.248-.566.088-.837.816-1.207.727l-1.324-1.8c3.035-1.273,7.816-.386,9.938-3.259.7-.945,1.581-3.829.317-4.365-.526-.224-5.3.683-5.592,1.267-1.063,2.1,4.392.25,4.695.481A4.468,4.468,0,0,1,34.5,61.256c-1.366.611-8.161,1.672-9.929,1.831-.231.021-.721.171-.805-.086l1.451-2.389c.891-.65,5.4-.331,5-1.886-.345-1.361-3.677.114-4.668.048-.429-.029-.812-.645-1.383-.443C16.6,60,8.609,60.72,1.077,62.4A1.857,1.857,0,0,0,0,62.88v.72l.828.505,22.451-3.864a20.921,20.921,0,0,1-1.706,3.692c-.772.952-5.64,1.074-7.024,1.6-.463-.07-.031-1.842-1.218-1.7-1.654.192.394,2.348-1.694,2.19-.751-.057-.39-1.042-.648-1.406a.988.988,0,0,0-1.592.352l.2,1.512-1.439.242c-.123-.549-.283-1.948-1.039-1.883l-.861.6.218,1.516-1.293.257-.613-1.588c-1.652-.566-1.486.587-1.217,1.807-.809.249-2.818.22-2.379,1.54.262.788,2.467.167,3.146.07C6.816,68.659,20.959,66.5,22.4,65.711c.315-.172.308-.555.731-.717a9.323,9.323,0,0,1,2.309-.331c2.051,3.809,5.154,6.824,8.11,9.907a21.474,21.474,0,0,1-2.3,9.117c-.527.941-2.061,1.661-.528,2.713h.24c2.9-2.347,3.62-6.792,4.082-10.319,1.435.484,2.45,1.793,3.912,2.445,4.4,1.96,8.38.426,11.684-2.686.707,3.752,1.207,7.8,4.082,10.56h.48c1.153-1.192-.133-1.783-.671-2.809-1.466-2.789-1.932-5.944-2.414-9.028,5.429-4.979,10.8-11.348,11.032-19.1,2.567-.43,3.578-2.855,4.293-5.065V46.56c-.542-1.817-.866-3.405-2.6-4.462M32.64,8.28c.9-6.632,9.149-7.444,14.409-6.249,5.242,1.192,6.544,5.27,6.23,10.209a40.852,40.852,0,0,0-20.639,0c.119-1.249-.163-2.75,0-3.96M62.878,43.44c-.635.059-.389.012-.474-.359-.958-4.192-2.875-11.585-7.255-13.391a21.4,21.4,0,0,0-6.909-1.133c1.287-1.245,2.72-3.764,2.124-5.6a.74.74,0,0,0-1.356.012c-.786,2.164-.214,3.8-3.1,4.817-3.009,1.065-8.268.459-11.876,1.085-8.06,1.4-8.455,7.18-10.581,13.9-.079.25-.062.725-.406.667-2.727-9.339-2.552-22.56,6.884-28.032,6.2-3.593,17.2-3.741,23.757-1.05,11.6,4.762,12,18.572,9.194,29.084" transform="translate(0 0)" fill="#d3b078" stroke="#c59c5d" stroke-width="0.6"/>
    <path id="Path_5" data-name="Path 5" d="M64.584,61.176c.3.421,1.825.321,1.562-.7-.414-1.613-2.113-.083-1.562.7" transform="translate(0 0)" fill="#d3b078" stroke="#c59c5d" stroke-width="0.6"/>
    <path id="Path_6" data-name="Path 6" d="M63.455,63.477c.115,1.618,2.339.682,1.556-.567-.217-.346-1.617-.291-1.556.567" transform="translate(0 0)" fill="#d3b078" stroke="#c59c5d" stroke-width="0.6"/>
    <path id="Path_7" data-name="Path 7" d="M59.97,70.589c-.677-.424-1.935.32-1.307,1.188.819,1.134,2.149-.66,1.307-1.188" transform="translate(0 0)" fill="#d3b078" stroke="#c59c5d" stroke-width="0.6"/>
    <path id="Path_8" data-name="Path 8" d="M56.7,73.022c-.757.732.67,2,1.278,1.152.521-.731-.474-1.929-1.278-1.152" transform="translate(0 0)" fill="#d3b078" stroke="#c59c5d" stroke-width="0.6"/>
    <path id="Path_9" data-name="Path 9" d="M60.706,69.5c.926.661,1.878-.867,1.181-1.3-.887-.554-2.033.694-1.181,1.3" transform="translate(0 0)" fill="#d3b078" stroke="#c59c5d" stroke-width="0.6"/>
    <path id="Path_10" data-name="Path 10" d="M62.546,65.542c-.923.295-.214,2.043.828,1.312a.784.784,0,0,0-.828-1.312" transform="translate(0 0)" fill="#d3b078" stroke="#c59c5d" stroke-width="0.6"/>
  </g>
</svg>
