<svg xmlns="http://www.w3.org/2000/svg" width="73.1" height="81.983" viewBox="0 0 73.1 81.983">
  <g id="Icon" transform="translate(-344.237 -1507.017)">
    <path id="Path_2" data-name="Path 2" d="M155.073,328.083l-.382-6.04a11.442,11.442,0,0,0-2.411-6.347,1.2,1.2,0,0,0-1.893,1.479,9.05,9.05,0,0,1,1.906,5.019l.3,4.764H110.007l.3-4.763a9.085,9.085,0,0,1,6.891-8.251l6.486-1.6a1.923,1.923,0,0,0,1.465-1.869v-4.628a15.345,15.345,0,0,0,12.231.029v4.579a1.923,1.923,0,0,0,1.464,1.871l6.562,1.621a9.066,9.066,0,0,1,1.632.572,1.2,1.2,0,1,0,1.007-2.18,11.457,11.457,0,0,0-2.065-.724l-6.2-1.531v-5.345a20.8,20.8,0,0,0,8.32-8.439,1.2,1.2,0,0,0-2.128-1.113,18.427,18.427,0,0,1-7.938,7.762,13.624,13.624,0,0,1-13.538-.036,18.45,18.45,0,0,1-7.759-7.521,1.2,1.2,0,0,0-2.113,1.142,20.833,20.833,0,0,0,8.122,8.164v5.4l-6.124,1.513a11.487,11.487,0,0,0-8.712,10.431l-.381,6.04a1.2,1.2,0,0,0,1.2,1.276h45.147a1.2,1.2,0,0,0,1.2-1.277Z" transform="translate(249.485 1259.64)" fill="#d3b078"/>
    <path id="Path_3" data-name="Path 3" d="M99.637,18.812a1.2,1.2,0,0,0-1.2,1.2V44.644c0,8.424-8.913,12.7-14.225,14.5-2.825.956-4.267.448-4.547-.126-.167-.342.048-.8.522-1.11,2.046-1.345,10.31-7.637,10.31-11.6a37.887,37.887,0,0,0-.313-4.63,2.045,2.045,0,0,0-2.876-1.6l-6.413,2.914a1.142,1.142,0,0,1-1.184-1.933c1.144-.911,2.1-1.632,2.907-2.2l.028-.02a17.188,17.188,0,0,1,3.429-2.054c.024-.008.047-.016.07-.026a1.293,1.293,0,0,1,.342-.089h3.933a1.2,1.2,0,0,0,1.2-1.2V20.7a1.2,1.2,0,1,0-2.4,0V34.258H87.3a18.815,18.815,0,0,0,.535-5.018c-.118-2.553-.977-4.491-2.5-5.654-.13-4.242-1.239-7.686-3.3-10.243a12.542,12.542,0,0,0-5.687-3.97A11.921,11.921,0,0,0,68.519.7C65.048-.509,57.9-1.188,49.037,7.807a1.2,1.2,0,0,0,1.711,1.686c7.937-8.054,14.047-7.546,16.983-6.527a9.908,9.908,0,0,1,2.263,1.125,9.8,9.8,0,0,0-2.321.2A15.3,15.3,0,0,0,60.4,8.473a1.2,1.2,0,0,0,1.647,1.748,13.017,13.017,0,0,1,6.122-3.577,6.86,6.86,0,0,1,4.875.717,8.092,8.092,0,0,1,1.042,3.057,5.908,5.908,0,0,1,.03,1.014,6.084,6.084,0,0,1-.24,1.354,11.361,11.361,0,0,1-2.853,4.484,29.273,29.273,0,0,1-3.981,3.4h0a67.54,67.54,0,0,1-10.833,6.178,20.648,20.648,0,0,0-9.653,9.49,15.48,15.48,0,0,0-3.4-1.885c-.64-5.938-.267-14.185,4.616-21.342a1.2,1.2,0,1,0-1.984-1.354c-5.167,7.573-5.683,16.188-5.067,22.5H39.358V20.7a1.2,1.2,0,1,0-2.4,0V35.459a1.2,1.2,0,0,0,1.2,1.2h3.931c.044,0,.945.059,4.281,2.485l.038.028c.707.515,1.52,1.133,2.458,1.881a1.142,1.142,0,0,1-1.184,1.933L41.27,40.073a2.045,2.045,0,0,0-2.876,1.6,37.889,37.889,0,0,0-.313,4.63c0,3.96,8.264,10.251,10.31,11.6.474.312.688.768.522,1.11-.28.574-1.723,1.082-4.547.126-5.313-1.8-14.225-6.071-14.225-14.5V20.013a1.2,1.2,0,0,0-2.4,0V44.644c0,4.319,1.9,8.118,5.645,11.292A32.113,32.113,0,0,0,43.6,61.414a11.119,11.119,0,0,0,3.53.658c2.131,0,3.409-.908,3.946-2.006a3.3,3.3,0,0,0-1.36-4.171,42.73,42.73,0,0,1-5.848-4.817c-2.492-2.463-3.38-4.08-3.38-4.772a34.633,34.633,0,0,1,.236-3.845l5.97,2.713a3.544,3.544,0,0,0,3.674-6c-.658-.525-1.26-.99-1.818-1.408a18.253,18.253,0,0,1,8.681-8.746,71.754,71.754,0,0,0,10.7-6.037c8.138,3,11.06,9.135,12.591,14.418-.687.506-1.451,1.091-2.308,1.773a3.544,3.544,0,0,0,3.674,6l5.97-2.713a34.633,34.633,0,0,1,.236,3.845c0,.692-.888,2.309-3.38,4.772A42.7,42.7,0,0,1,78.865,55.9a3.3,3.3,0,0,0-1.36,4.171c.536,1.1,1.814,2.006,3.946,2.006a11.122,11.122,0,0,0,3.53-.658,32.115,32.115,0,0,0,10.212-5.478c3.746-3.173,5.645-6.973,5.645-11.292V20.013A1.2,1.2,0,0,0,99.637,18.812ZM70.169,21.3c2.894-2.361,5.884-5.582,6.306-9.29,4.312,1.955,5.888,6,6.332,9.811l-.466-.328a1.2,1.2,0,0,0-1.383,1.964l2.5,1.764c.014.01.028.016.042.025s.032.023.049.033c2.459,1.42,2.177,5.875,1.142,9.48a18.189,18.189,0,0,0-2.1,1.2C81.015,30.908,77.913,24.7,70.169,21.3Z" transform="translate(316.499 1507.018)" fill="#d3b078"/>
  </g>
</svg>
