<svg xmlns="http://www.w3.org/2000/svg" xmlns:xlink="http://www.w3.org/1999/xlink" width="72.162" height="86.4" viewBox="0 0 72.162 86.4">
  <defs>
    <clipPath id="clip-path">
      <rect id="Rectangle_39" data-name="Rectangle 39" width="72.162" height="86.4" fill="#d3b078"/>
    </clipPath>
  </defs>
  <g id="Icon" clip-path="url(#clip-path)">
    <path id="Path_20" data-name="Path 20" d="M45.063,72.12c-.616,1.082.964,2.6,1.388,3.686.967,2.468.722,5.431.979,8.041H2.583c.342-2.881-.009-5.92,1.26-8.6a9.987,9.987,0,0,1,5.32-4.8c2.358-.871,6.24-1.153,8.267-2.186a2.3,2.3,0,0,0,1.17-1.7V61.592c4.165,1.881,8.57,1.621,12.814.169V66.9c0,.608,1.1,1.353,1.648,1.555,2.109.776,5.032,1.209,7.289,1.815.9.242,2.151,1.2,2.845-.016.949-1.668-1.516-2.2-2.641-2.548-2.142-.652-4.42-1.071-6.6-1.572l.02-5.613c.927-.826,4.476-2.632,4.506-3.9a1.311,1.311,0,0,0-1.708-1.23c-.492.129-1.571,1.264-2.094,1.619-5.558,3.769-10.917,4.619-17.03,1.406-6.2-3.256-12.072-11.549-9.19-18.688,2.775-6.877,9.337-8.864,15.149-12.165.759-.43,4.9-3.2,5.205-3.231.832-.083,4.637,2.18,5.457,2.8,3.8,2.848,7.559,8.962,8.236,13.682.151,1.057-.43,3.324,1.3,3.261,1.69-.062,1.093-1.964,1.286-2.189.083-.1,1.66-.244,2.343-.944a8.516,8.516,0,0,0,1.23-2.648c1.169-3.552,2-9.055-.312-12.261-.312-.433-1.024-.864-1.178-1.351a8.745,8.745,0,0,1-.077-1.609c-.663-4.852-2.29-9.1-6.588-11.789-.542-.34-2.58-1.213-2.76-1.455a13.324,13.324,0,0,1-.515-1.676A13.371,13.371,0,0,0,26.356.054a19.036,19.036,0,0,0-2.867,0c-3.823.364-7.961,2.672-10.941,4.991-.721.56-3.5,2.826-3.768,3.482A1.264,1.264,0,0,0,10.5,10.25c.462-.211,2.058-1.972,2.62-2.437C18.03,3.768,24.966.272,30.908,4.435A12.379,12.379,0,0,0,23.1,7.166c-.727.521-2.571,1.845-2.57,2.75a1.386,1.386,0,0,0,1.487,1.24c.561-.1,3.149-2.465,4.115-2.98a9.7,9.7,0,0,1,5.853-1.19c2.182.266,3.038,1.517,3.288,3.624.805,6.777-8.854,12.534-13.972,15.328-2.229,1.218-4.633,2.152-6.8,3.486-4.648,2.862-8.863,7.856-9.391,13.455-1.665-.4-1.727-2.4-1.973-3.842C1.73,30.78,2.578,23.2,6.432,15.789c.519-1,2.013-2.43,1.044-3.516a1.287,1.287,0,0,0-1.934.1c-1.467,1.586-3.464,6.569-4.091,8.722-1.615,5.536-2.19,16.186-.1,21.583a5.631,5.631,0,0,0,3.134,2.77c.252.119.7.068.812.232a23.186,23.186,0,0,1,.612,2.387A21.866,21.866,0,0,0,15.986,60.413l.095,5.634c-3.789,1.152-8.039,1.378-11.216,3.98C-.091,74.084.165,79.676.089,85.583l.683.666c16.043.272,32.154.1,48.221.088a1.177,1.177,0,0,0,1.041-1.283,34.938,34.938,0,0,0-1.173-9.971c-.406-1.066-2.475-5.29-3.8-2.962M37.9,12.7a11.811,11.811,0,0,1,6.491,10.114c-.7-.173-1-.578-1.75-.147-2.462,1.4,2.639,3.735,3.437,4.617,1.882,2.083,1.139,6.727.459,9.224-.136.5-1.11,4.018-1.946,2.548-1.846-7.356-6.364-13.5-13.346-16.662,3.1-2.481,5.942-5.643,6.655-9.692" transform="translate(0 0)" fill="#d3b078"/>
    <path id="Path_21" data-name="Path 21" d="M67.67,74.719c-2.066-3.884-5.456-7.8-7.248-11.8-.483-1.078-.688-2.357-1.118-3.433-.3-.747-1.456-2.291-1.519-2.707-.119-.8,1.383-1.442,1.913-2.063a5.863,5.863,0,0,0,1.258-4.3c-.129-1.334-3.335-7.047-4.3-8.181a4.5,4.5,0,0,0-3.233-1.62c-.3-.026-.624.191-.954.086-.7-.223-.7-2.489-2.884-2.163-.754.112-1.427.893-2,1.045-.337.088-.576-.078-.861-.04-.917.128-.789.768-1.29,1.254-.98.953-1.846.451-2.508.862-.614.383-.6,1.264-1.745,1.629-.916.293-1.252-.167-1.981.723-.124.152-.122.418-.221.53-.538.613-1.745.594-2.056,1.737-.406,1.495.837,2.152.877,2.787.015.252-.453.608-.576.887a4.252,4.252,0,0,0,.1,4.367c.826,1.718,3.408,6.293,4.861,7.278a5.885,5.885,0,0,0,4,.853c.88-.107,2.243-1.118,2.918-.6A19.185,19.185,0,0,1,50.1,63.8c.788,1.235,2.131,2.317,3.005,3.57,2.78,3.984,4.575,9.053,7.262,13.138,4.381,4.247,10.326-.1,7.3-5.785M39.716,46.952c.91.1,1.154,1.033,2.176.406.955-.585.224-1.491.688-2.01.864-.969,1.311.681,2.528.166,1.1-.464.442-1.713.581-1.936a3.167,3.167,0,0,1,.888-.479c.341-.029,1.433,1.395,2.323.139.71-1-.616-1.648.93-2.02.182,1.075,2.718,4.2,2.7,4.982-.025,1.125-1.172.008-1.471-.059-2.174-.487-1.318,1.847-1.408,1.973a8.694,8.694,0,0,1-.944.5c-.381.037-.741-1.015-1.868-.526s-.47,1.641-.623,1.9a10.027,10.027,0,0,1-1.023.674c-.065.018-.166-.461-.576-.6a1.336,1.336,0,0,0-1.841.893c-.114.63.568,1.02-.359,1.224-.132-.77-2.992-4.925-2.7-5.226M62.3,78.9c-2.877-4.76-4.927-10.332-8.432-14.667-.443-.548-1.082-.964-1.486-1.549-.908-1.316-.8-2.581-2.607-3.293-2.44-.966-3.941,1.57-6.179.11-.872-.57-3.177-4.726-3.747-5.864a3.366,3.366,0,0,1-.644-1.967l2.728,4.6c1.25,2.285,2.9,2.63,5.2,1.554a38.129,38.129,0,0,0,3.71-2.191,1.525,1.525,0,0,0,.176-1.7c-1.2-1.692-4.6,1.962-5.829,1.969-.537,0-1.186-.912-1.35-1.37-.206-.573,1.475-.459,1.77-.589.436-.191.82-1.444,2.034-1.851.609-.2.833.528,1.68-.512.138-.167.119-.421.286-.594.051-.052,1.164-.724,1.241-.75.527-.178.914.212,1.495-.178.406-.272.991-2.009,1.781-1.257a4.422,4.422,0,0,1,.606,1.267c.011.98-1.683.755-1.5,2.146.309,2.4,3.721.548,4-1.656.278-2.188-2.321-4.935-3.186-6.9-.025-.547.4-.129.592.082a45.622,45.622,0,0,1,3.374,5.73,3.937,3.937,0,0,1,.415,1.271c.27,2.774-1.957,2.588-2.82,4.43-1.11,2.366.322,3.044,1.167,4.812.717,1.5.953,3.124,1.793,4.783,2.081,4.109,5.1,7.991,7.37,12.017A2.126,2.126,0,0,1,62.3,78.9" transform="translate(3.669 3.851)" fill="#d3b078"/>
    <path id="Path_22" data-name="Path 22" d="M31.5,42.393a1.269,1.269,0,0,0-.6-2.467,1.269,1.269,0,0,0,.6,2.467" transform="translate(2.995 3.991)" fill="#d3b078"/>
    <path id="Path_23" data-name="Path 23" d="M35.654,39.925a1.269,1.269,0,0,0,.6,2.467,1.269,1.269,0,0,0-.6-2.467" transform="translate(3.47 3.991)" fill="#d3b078"/>
    <path id="Path_24" data-name="Path 24" d="M30.327,46.188c1.246,1,3-.861,1.758-1.922-1.315-1.12-3.017.908-1.758,1.922" transform="translate(2.99 4.395)" fill="#d3b078"/>
  </g>
</svg>
