<svg xmlns="http://www.w3.org/2000/svg" width="74.415" height="74.558" viewBox="0 0 74.415 74.558">
  <path id="Icon" d="M23.206,18.9V11.018a2.151,2.151,0,1,0-4.3,0V18.9Zm-7.169-7.886V18.9H14.6a2.868,2.868,0,0,0-2.868,2.868v5.735A2.868,2.868,0,0,0,14.6,30.375v3.6A12.91,12.91,0,0,0,6,46.147V73.389a7.169,7.169,0,0,0,7.169,7.169h7.169a1.434,1.434,0,1,0,0-2.868H13.169a4.3,4.3,0,0,1-4.3-4.3V46.147A10.037,10.037,0,0,1,18.9,36.11h4.3A10.037,10.037,0,0,1,33.242,46.147a1.434,1.434,0,1,0,2.868,0,12.91,12.91,0,0,0-8.6-12.17v-3.6a2.868,2.868,0,0,0,2.868-2.868V21.772A2.868,2.868,0,0,0,27.507,18.9H26.073V11.018a5.018,5.018,0,1,0-10.037,0ZM14.6,21.772v5.735h12.9V21.772ZM17.47,33.321V30.375h7.169v2.946a13.044,13.044,0,0,0-1.434-.079H18.9A13.044,13.044,0,0,0,17.47,33.321ZM71.955,67.654h-4.3a1.434,1.434,0,1,1,0-2.868h7.237l2.378-48.749H56.56L57.866,45.95A1.434,1.434,0,0,1,55,46.075L53.447,10.489A4.3,4.3,0,0,1,57.745,6H76.113a4.3,4.3,0,0,1,4.3,4.511L77.69,66.254v10a4.3,4.3,0,0,1-4.3,4.3H66.22a1.434,1.434,0,0,1,0-2.868h7.169a1.434,1.434,0,0,0,1.434-1.434v-8.6ZM56.435,13.169H77.409l.136-2.8a1.434,1.434,0,0,0-1.432-1.5H57.745a1.434,1.434,0,0,0-1.433,1.5ZM26.073,53.316H60.485v5.735H26.073Zm37.279,0V74.823a5.735,5.735,0,0,1-5.735,5.735H28.941a5.735,5.735,0,0,1-5.735-5.735V53.316a2.868,2.868,0,0,1,2.868-2.868H60.485A2.868,2.868,0,0,1,63.352,53.316Zm-37.279,8.6H60.485v12.9a2.868,2.868,0,0,1-2.868,2.868H28.941a2.868,2.868,0,0,1-2.868-2.868ZM72.831,18.861a1.434,1.434,0,0,1,1.362,1.5L74.1,22.2a1.434,1.434,0,1,1-2.864-.14l.09-1.837a1.434,1.434,0,0,1,1.5-1.362Zm-.358,7.348a1.434,1.434,0,0,1,1.362,1.5l-1.523,31.23a1.434,1.434,0,0,1-2.864-.14l1.523-31.23a1.434,1.434,0,0,1,1.5-1.362ZM39.418,30.375a8.6,8.6,0,0,0,2.427-2.427,8.607,8.607,0,0,0,2.427,2.427A8.605,8.605,0,0,0,41.845,32.8,8.6,8.6,0,0,0,39.418,30.375Zm1.082-6.4a1.434,1.434,0,0,1,2.689,0l.451,1.219a5.735,5.735,0,0,0,3.389,3.388l1.218.451a1.434,1.434,0,0,1,0,2.689l-1.218.451a5.735,5.735,0,0,0-3.389,3.389l-.451,1.219a1.434,1.434,0,0,1-2.689,0l-.451-1.219a5.735,5.735,0,0,0-3.389-3.389l-1.218-.451a1.434,1.434,0,0,1,0-2.689l1.219-.451a5.735,5.735,0,0,0,3.388-3.388ZM11.735,64.786a1.434,1.434,0,0,0,2.868,0V44.713a1.434,1.434,0,0,0-2.868,0ZM30.375,74.823a1.434,1.434,0,0,1-1.434-1.434V66.22a1.434,1.434,0,0,1,2.868,0v7.169A1.434,1.434,0,0,1,30.375,74.823ZM14.6,70.521a1.434,1.434,0,1,0-2.868,0v2.868a1.434,1.434,0,1,0,2.868,0Z" transform="translate(-6 -6)" fill="#d3b078" fill-rule="evenodd"/>
</svg>
