<svg xmlns="http://www.w3.org/2000/svg" width="68.502" height="81.983" viewBox="0 0 68.502 81.983">
  <g id="Icon_" data-name="Icon " transform="translate(-798.06 -1899.017)">
    <path id="Path_25" data-name="Path 25" d="M89.639,80.706l-.381-6.039a11.428,11.428,0,0,0-2.409-6.347A1.2,1.2,0,0,0,84.956,69.8a9.037,9.037,0,0,1,1.9,5.019l.3,4.763H44.574l.3-4.764a9.025,9.025,0,0,1,3.082-6.266,9.126,9.126,0,0,1,3.808-1.984l6.489-1.6A1.923,1.923,0,0,0,59.715,63.1V58.459a15.3,15.3,0,0,0,12.231.038v4.579a1.923,1.923,0,0,0,1.465,1.871l6.561,1.621a9.138,9.138,0,0,1,1.634.573,1.2,1.2,0,0,0,1-2.182,11.559,11.559,0,0,0-2.064-.724l-6.2-1.531V57.355a21.377,21.377,0,0,0,4.324-3.163,1.2,1.2,0,1,0-1.653-1.742,19.085,19.085,0,0,1-4.332,3.08,1.216,1.216,0,0,0-.146.074,15.088,15.088,0,0,1-6.672,1.747,17.057,17.057,0,0,1-10.252-4.1A17.438,17.438,0,0,1,49.3,41.4c.032-4.457,4.2-9.883,9.508-12.375a71.734,71.734,0,0,0,10.7-6.038,18.635,18.635,0,0,1,9.356,7.185,27.344,27.344,0,0,1,3.645,8.737c.005.629,0,1.194-.019,1.677a1.2,1.2,0,0,0,1.154,1.246h.047a1.2,1.2,0,0,0,1.2-1.155c.011-.292.018-.611.021-.95l.993-.207a2.409,2.409,0,0,0,1.686-1.347h0a22.428,22.428,0,0,0,1.817-7.412c.189-3.326-.669-5.787-2.486-7.173-.13-4.242-1.239-7.685-3.3-10.242a12.544,12.544,0,0,0-5.688-3.971A11.922,11.922,0,0,0,70.1.7c-3.471-1.2-10.618-1.884-19.481,7.111a1.2,1.2,0,0,0,1.711,1.686C60.264,1.439,66.374,1.946,69.31,2.966a9.9,9.9,0,0,1,2.263,1.125,9.8,9.8,0,0,0-2.321.2,15.3,15.3,0,0,0-7.276,4.179,1.2,1.2,0,0,0,1.647,1.748,13.015,13.015,0,0,1,6.122-3.577,6.86,6.86,0,0,1,4.875.716,8.1,8.1,0,0,1,1.042,3.057,6.067,6.067,0,0,1,.039.767c0,.083,0,.166-.009.247-.144,2.456-1.932,5.1-5.321,7.887q-.815.67-1.753,1.35h0a67.526,67.526,0,0,1-10.831,6.178c-5.939,2.787-10.48,8.651-10.865,13.895A3.649,3.649,0,0,1,45.633,39.7c-1.142-4.723-3.039-16.689,3.713-26.586a1.2,1.2,0,1,0-1.984-1.354c-7.311,10.718-5.271,23.53-4.054,28.541.318,1.309,2.316,2.8,3.837,3.008a20.188,20.188,0,0,0,10.168,14v5.415l-6.125,1.513a11.53,11.53,0,0,0-4.814,2.509,11.411,11.411,0,0,0-3.9,7.921l-.381,6.04a1.2,1.2,0,0,0,1.2,1.276H88.441a1.2,1.2,0,0,0,1.2-1.276ZM78.054,12c4.314,1.955,5.89,6,6.334,9.812l-.467-.329a1.2,1.2,0,0,0-1.383,1.964l2.5,1.764c.017.012.036.021.054.032s.024.017.037.025c3.154,1.822,1.709,8.756.275,11.894l-.83.173c-1.617-5.822-4.667-12.473-12.829-16.047C74.642,18.934,77.633,15.71,78.054,12Z" transform="translate(755.97 1899.018)" fill="#d3b078"/>
    <path id="Path_26" data-name="Path 26" d="M280.43,273.1l-1.252-1.492a1.749,1.749,0,0,0-2.465-.215l-2.952,2.477-1.38-1.645,2.685-2.253h0l2.418-2.029a1.2,1.2,0,0,0-1.544-1.84l-1.5,1.257-10.265-12.233h0l-3.985-4.749a2.1,2.1,0,0,0-2.868-.335,6.221,6.221,0,0,0-2.413-2.122l-1-.4-1.16-1.383a1.7,1.7,0,0,0-2.39-.209l-.029.024-3.421-4.077a1.2,1.2,0,0,0-1.84,1.544l3.421,4.077-.028.024a1.7,1.7,0,0,0-.209,2.39l1.16,1.383.222,1.052a6.194,6.194,0,0,0,1.671,2.745,2.1,2.1,0,0,0-.168,2.883l11.48,13.681h0l2.77,3.3-1.5,1.257a1.2,1.2,0,0,0,.773,2.121c.778,0,.661-.317,5.875-4.563l1.38,1.645-2.952,2.477a1.752,1.752,0,0,0-.216,2.465c1.049,1.1,1.327,2.013,2.44,2.11q.078.007.156.007a1.735,1.735,0,0,0,1.121-.41l7.744-6.5A1.752,1.752,0,0,0,280.43,273.1Zm-28.442-21.254L251.7,250.5c-.1-.477-.381-.621-1.155-1.6l.816-.685.9,1.072c.311.371.613.362,1.747.856a1.725,1.725,0,0,1,.675.49l.792.943-2.334,1.959C252.528,252.743,252.126,252.5,251.988,251.845Zm1.183,4.807,5.37-4.506,3.023,3.6-5.37,4.506Zm14.061,16.757-2-2.382,1.547-1.3a1.2,1.2,0,0,0-1.544-1.84l-1.547,1.3-2.409-2.871,1.547-1.3a1.2,1.2,0,1,0-1.544-1.84l-1.547,1.3-2-2.382,5.37-4.506L272.6,268.9Zm4.195,6.394-.413-.492,6.745-5.659.413.492Z" transform="translate(585.725 1696.234)" fill="#d3b078"/>
  </g>
</svg>
